<svg width="165" height="36" viewBox="0 0 165 36" fill="none" xmlns="http://www.w3.org/2000/svg">
<path fill-rule="evenodd" clip-rule="evenodd" d="M18 36C27.9412 36 36 27.9411 36 18C36 8.05888 27.9412 0 18 0C8.05887 0 0 8.05888 0 18C0 27.9411 8.05887 36 18 36ZM20.7783 13.9073C22.3126 12.3729 22.3126 9.88521 20.7783 8.3508C19.2439 6.81641 16.7562 6.81641 15.2218 8.3508C13.6874 9.88521 13.6874 12.3729 15.2218 13.9073L18 16.6855L20.7783 13.9073ZM22.0927 20.7783C23.6271 22.3127 26.1148 22.3127 27.6493 20.7783C29.1836 19.2439 29.1836 16.7562 27.6493 15.2218C26.1148 13.6874 23.6271 13.6874 22.0927 15.2218L19.3145 18.0001L22.0927 20.7783ZM20.7783 27.6493C22.3126 26.1148 22.3126 23.6271 20.7783 22.0927L18 19.3145L15.2218 22.0927C13.6874 23.6271 13.6874 26.1148 15.2218 27.6493C16.7562 29.1837 19.2439 29.1837 20.7783 27.6493ZM8.35077 20.7783C6.81642 19.2439 6.81642 16.7562 8.35077 15.2218C9.88521 13.6874 12.3729 13.6874 13.9073 15.2218L16.6855 18.0001L13.9073 20.7783C12.3729 22.3127 9.88521 22.3127 8.35077 20.7783Z" fill="#207ECA"/>
<path d="M52.592 22.832H57.968V26H48.488V9.152H52.592V22.832ZM66.0215 26.192C64.7095 26.192 63.5255 25.912 62.4695 25.352C61.4295 24.792 60.6055 23.992 59.9975 22.952C59.4055 21.912 59.1095 20.696 59.1095 19.304C59.1095 17.928 59.4135 16.72 60.0215 15.68C60.6295 14.624 61.4615 13.816 62.5175 13.256C63.5735 12.696 64.7575 12.416 66.0695 12.416C67.3815 12.416 68.5655 12.696 69.6215 13.256C70.6775 13.816 71.5095 14.624 72.1175 15.68C72.7255 16.72 73.0295 17.928 73.0295 19.304C73.0295 20.68 72.7175 21.896 72.0935 22.952C71.4855 23.992 70.6455 24.792 69.5735 25.352C68.5175 25.912 67.3335 26.192 66.0215 26.192ZM66.0215 22.64C66.8055 22.64 67.4695 22.352 68.0135 21.776C68.5735 21.2 68.8535 20.376 68.8535 19.304C68.8535 18.232 68.5815 17.408 68.0375 16.832C67.5095 16.256 66.8535 15.968 66.0695 15.968C65.2695 15.968 64.6055 16.256 64.0775 16.832C63.5495 17.392 63.2855 18.216 63.2855 19.304C63.2855 20.376 63.5415 21.2 64.0535 21.776C64.5815 22.352 65.2375 22.64 66.0215 22.64ZM74.3908 19.304C74.3908 17.912 74.6708 16.696 75.2308 15.656C75.8068 14.616 76.5988 13.816 77.6068 13.256C78.6308 12.696 79.7988 12.416 81.1108 12.416C82.7908 12.416 84.1908 12.856 85.3108 13.736C86.4468 14.616 87.1908 15.856 87.5428 17.456H83.1748C82.8068 16.432 82.0948 15.92 81.0388 15.92C80.2868 15.92 79.6868 16.216 79.2388 16.808C78.7908 17.384 78.5668 18.216 78.5668 19.304C78.5668 20.392 78.7908 21.232 79.2388 21.824C79.6868 22.4 80.2868 22.688 81.0388 22.688C82.0948 22.688 82.8068 22.176 83.1748 21.152H87.5428C87.1908 22.72 86.4468 23.952 85.3108 24.848C84.1748 25.744 82.7748 26.192 81.1108 26.192C79.7988 26.192 78.6308 25.912 77.6068 25.352C76.5988 24.792 75.8068 23.992 75.2308 22.952C74.6708 21.912 74.3908 20.696 74.3908 19.304ZM88.922 19.28C88.922 17.904 89.178 16.696 89.69 15.656C90.218 14.616 90.93 13.816 91.826 13.256C92.722 12.696 93.722 12.416 94.826 12.416C95.77 12.416 96.594 12.608 97.298 12.992C98.018 13.376 98.57 13.88 98.954 14.504V12.608H103.058V26H98.954V24.104C98.554 24.728 97.994 25.232 97.274 25.616C96.57 26 95.746 26.192 94.802 26.192C93.714 26.192 92.722 25.912 91.826 25.352C90.93 24.776 90.218 23.968 89.69 22.928C89.178 21.872 88.922 20.656 88.922 19.28ZM98.954 19.304C98.954 18.28 98.666 17.472 98.09 16.88C97.53 16.288 96.842 15.992 96.026 15.992C95.21 15.992 94.514 16.288 93.938 16.88C93.378 17.456 93.098 18.256 93.098 19.28C93.098 20.304 93.378 21.12 93.938 21.728C94.514 22.32 95.21 22.616 96.026 22.616C96.842 22.616 97.53 22.32 98.09 21.728C98.666 21.136 98.954 20.328 98.954 19.304ZM112.747 16.016H110.539V26H106.435V16.016H104.947V12.608H106.435V12.224C106.435 10.576 106.907 9.328 107.851 8.48C108.795 7.616 110.179 7.184 112.003 7.184C112.307 7.184 112.531 7.192 112.675 7.208V10.688C111.891 10.64 111.339 10.752 111.019 11.024C110.699 11.296 110.539 11.784 110.539 12.488V12.608H112.747V16.016ZM116.74 11.216C116.02 11.216 115.428 11.008 114.964 10.592C114.516 10.16 114.292 9.632 114.292 9.008C114.292 8.368 114.516 7.84 114.964 7.424C115.428 6.992 116.02 6.776 116.74 6.776C117.444 6.776 118.02 6.992 118.468 7.424C118.932 7.84 119.164 8.368 119.164 9.008C119.164 9.632 118.932 10.16 118.468 10.592C118.02 11.008 117.444 11.216 116.74 11.216ZM118.78 12.608V26H114.676V12.608H118.78ZM120.938 19.304C120.938 17.912 121.218 16.696 121.778 15.656C122.354 14.616 123.146 13.816 124.154 13.256C125.178 12.696 126.346 12.416 127.658 12.416C129.338 12.416 130.738 12.856 131.858 13.736C132.994 14.616 133.738 15.856 134.09 17.456H129.722C129.354 16.432 128.642 15.92 127.586 15.92C126.834 15.92 126.234 16.216 125.786 16.808C125.338 17.384 125.114 18.216 125.114 19.304C125.114 20.392 125.338 21.232 125.786 21.824C126.234 22.4 126.834 22.688 127.586 22.688C128.642 22.688 129.354 22.176 129.722 21.152H134.09C133.738 22.72 132.994 23.952 131.858 24.848C130.722 25.744 129.322 26.192 127.658 26.192C126.346 26.192 125.178 25.912 124.154 25.352C123.146 24.792 122.354 23.992 121.778 22.952C121.218 21.912 120.938 20.696 120.938 19.304ZM148.909 19.088C148.909 19.472 148.885 19.872 148.837 20.288H139.549C139.613 21.12 139.877 21.76 140.341 22.208C140.821 22.64 141.405 22.856 142.093 22.856C143.117 22.856 143.829 22.424 144.229 21.56H148.597C148.373 22.44 147.965 23.232 147.373 23.936C146.797 24.64 146.069 25.192 145.189 25.592C144.309 25.992 143.325 26.192 142.237 26.192C140.925 26.192 139.757 25.912 138.733 25.352C137.709 24.792 136.909 23.992 136.333 22.952C135.757 21.912 135.469 20.696 135.469 19.304C135.469 17.912 135.749 16.696 136.309 15.656C136.885 14.616 137.685 13.816 138.709 13.256C139.733 12.696 140.909 12.416 142.237 12.416C143.533 12.416 144.685 12.688 145.693 13.232C146.701 13.776 147.485 14.552 148.045 15.56C148.621 16.568 148.909 17.744 148.909 19.088ZM144.709 18.008C144.709 17.304 144.469 16.744 143.989 16.328C143.509 15.912 142.909 15.704 142.189 15.704C141.501 15.704 140.917 15.904 140.437 16.304C139.973 16.704 139.685 17.272 139.573 18.008H144.709Z" fill="#000929"/>
</svg>
